<svg version="1.1" xmlns="http://www.w3.org/2000/svg" xmlns:xlink="http://www.w3.org/1999/xlink" width="128px" height="128px" viewBox="0,0,256,256"><g fill="#ffffff" fill-rule="nonzero" stroke="none" stroke-width="1" stroke-linecap="butt" stroke-linejoin="miter" stroke-miterlimit="10" stroke-dasharray="" stroke-dashoffset="0" font-family="none" font-weight="none" font-size="none" text-anchor="none" style="mix-blend-mode: normal"><g transform="scale(2,2)"><path d="M61.88,93.12v0c0.13494,0.13366 0.28227,0.2542 0.44,0.36l0.24,0.13c0.18022,0.11562 0.38024,0.19698 0.59,0.24l0.25,0.07v0c0.38298,0.07547 0.77702,0.07547 1.16,0l0.26,-0.08l0.3,-0.09c0.10294,-0.04762 0.20311,-0.10104 0.3,-0.16l0.21,-0.12c0.16558,-0.11107 0.31968,-0.23836 0.46,-0.38l26.91,-26.88c0.91627,-0.71299 1.33889,-1.89066 1.08504,-3.02356c-0.25384,-1.1329 -1.13858,-2.01764 -2.27148,-2.27148c-1.1329,-0.25384 -2.31057,0.16878 -3.02356,1.08504l-21.79,21.76v-80.76c0,-1.65685 -1.34315,-3 -3,-3c-1.65685,0 -3,1.34315 -3,3v80.76l-21.79,-21.76c-1.19426,-0.92931 -2.89367,-0.82371 -3.96369,0.24631c-1.07002,1.07002 -1.17562,2.76943 -0.24631,3.96369z"></path><path d="M125,88c-1.65685,0 -3,1.34315 -3,3v22c0,4.97056 -4.02944,9 -9,9h-98c-4.97056,0 -9,-4.02944 -9,-9v-22c0,-1.65685 -1.34315,-3 -3,-3c-1.65685,0 -3,1.34315 -3,3v22c0,8.28427 6.71573,15 15,15h98c8.28427,0 15,-6.71573 15,-15v-22c0,-1.65685 -1.34315,-3 -3,-3z"></path></g></g></svg>